<svg id="Layer_1" data-name="Layer 1" xmlns="http://www.w3.org/2000/svg" viewBox="0 0 312.62 157.62"><defs><style>.cls-1{fill:#fff;}</style></defs><path class="cls-1" d="M24.36,134.43a9.53,9.53,0,0,1,0,13.9q-3,2.5-8.3,2.51H8.63v8.73H5.71V131.9H16.06C19.59,131.9,22.36,132.75,24.36,134.43Zm-2.09,12a6.22,6.22,0,0,0,2.17-5.08,6.31,6.31,0,0,0-2.17-5.16,9.61,9.61,0,0,0-6.28-1.8H8.63v13.84H16A9.61,9.61,0,0,0,22.27,146.47Z" transform="translate(-5.71 -2.19)"/><path class="cls-1" d="M39.52,158a13.53,13.53,0,0,1-5.22-5,14.78,14.78,0,0,1,0-14.39,13.6,13.6,0,0,1,5.22-5,16,16,0,0,1,14.86,0,13.54,13.54,0,0,1,5.2,5,14.65,14.65,0,0,1,0,14.43,13.4,13.4,0,0,1-5.2,5,16,16,0,0,1-14.86,0Zm13.38-2.25a10.71,10.71,0,0,0,4.15-4.11,12.24,12.24,0,0,0,0-11.74,10.65,10.65,0,0,0-4.15-4.11A11.9,11.9,0,0,0,47,134.27,12.05,12.05,0,0,0,41,135.76a10.88,10.88,0,0,0-4.19,4.11,12.09,12.09,0,0,0,0,11.74A11,11,0,0,0,41,155.72,12,12,0,0,0,47,157.2,11.89,11.89,0,0,0,52.9,155.72Z" transform="translate(-5.71 -2.19)"/><path class="cls-1" d="M87.73,159.57l-6.33-8.89a19.78,19.78,0,0,1-2.21.12H71.76v8.77H68.83V131.9H79.19c3.53,0,6.29.85,8.3,2.53a8.63,8.63,0,0,1,3,7,8.6,8.6,0,0,1-6.32,8.7l6.76,9.48Zm-2.34-13.08a7.13,7.13,0,0,0,0-10.26,9.61,9.61,0,0,0-6.28-1.8H71.76v13.88h7.35A9.56,9.56,0,0,0,85.39,146.49Z" transform="translate(-5.71 -2.19)"/><path class="cls-1" d="M103.18,134.43H93.46V131.9h22.37v2.53h-9.72v25.14h-2.93Z" transform="translate(-5.71 -2.19)"/><path class="cls-1" d="M137.07,158a13.43,13.43,0,0,1-5.21-5,14.71,14.71,0,0,1,0-14.39,13.5,13.5,0,0,1,5.21-5,16,16,0,0,1,14.86,0,13.47,13.47,0,0,1,5.2,5,14.65,14.65,0,0,1,0,14.43,13.33,13.33,0,0,1-5.2,5,16,16,0,0,1-14.86,0Zm13.38-2.25a10.71,10.71,0,0,0,4.15-4.11,12.16,12.16,0,0,0,0-11.74,10.65,10.65,0,0,0-4.15-4.11,12.57,12.57,0,0,0-11.87,0,10.75,10.75,0,0,0-4.19,4.11,12,12,0,0,0,0,11.74,10.82,10.82,0,0,0,4.19,4.11,12.64,12.64,0,0,0,11.87,0Z" transform="translate(-5.71 -2.19)"/><path class="cls-1" d="M169.31,134.43V145.3h14.31v2.53H169.31v11.74h-2.93V131.9h19v2.53Z" transform="translate(-5.71 -2.19)"/><path class="cls-1" d="M232.08,131.9v27.67h-2.81V137.44L218.4,156.05H217l-10.87-18.49v22h-2.81V131.9h2.41l12,20.52,11.89-20.52Z" transform="translate(-5.71 -2.19)"/><path class="cls-1" d="M259.23,152.18H243.81l-3.32,7.39h-3L250.1,131.9H253l12.65,27.67h-3.08Zm-1.07-2.37L251.52,135l-6.64,14.86Z" transform="translate(-5.71 -2.19)"/><path class="cls-1" d="M289.9,159.57l-6.32-8.89a19.78,19.78,0,0,1-2.21.12h-7.44v8.77H271V131.9h10.36c3.52,0,6.29.85,8.29,2.53a8.6,8.6,0,0,1,3,7,9,9,0,0,1-1.64,5.47,9.11,9.11,0,0,1-4.68,3.23l6.75,9.48Zm-2.33-13.08a7.15,7.15,0,0,0,0-10.26,9.61,9.61,0,0,0-6.28-1.8h-7.36v13.88h7.36A9.56,9.56,0,0,0,287.57,146.49Z" transform="translate(-5.71 -2.19)"/><path class="cls-1" d="M302.1,158.82a10.86,10.86,0,0,1-4.37-2.61l1.14-2.25a11.11,11.11,0,0,0,4,2.43,14.56,14.56,0,0,0,5.14.93,9.39,9.39,0,0,0,5.57-1.37,4.19,4.19,0,0,0,1.86-3.53,3.55,3.55,0,0,0-1-2.65,6.73,6.73,0,0,0-2.47-1.52,38.59,38.59,0,0,0-4.07-1.17,43.1,43.1,0,0,1-5-1.52,8.28,8.28,0,0,1-3.19-2.23,6,6,0,0,1-1.32-4.08,6.9,6.9,0,0,1,1.11-3.81,7.54,7.54,0,0,1,3.4-2.75,14,14,0,0,1,5.69-1,16.52,16.52,0,0,1,4.64.66,13.11,13.11,0,0,1,3.94,1.8l-1,2.33a13.37,13.37,0,0,0-3.72-1.72,14,14,0,0,0-3.87-.58,8.87,8.87,0,0,0-5.47,1.41,4.34,4.34,0,0,0-1.84,3.62,3.6,3.6,0,0,0,1,2.66,6.67,6.67,0,0,0,2.53,1.55c1,.35,2.38.74,4.09,1.16a43.2,43.2,0,0,1,4.93,1.48,8.11,8.11,0,0,1,3.18,2.22,5.85,5.85,0,0,1,1.3,4,6.78,6.78,0,0,1-1.12,3.81,7.56,7.56,0,0,1-3.46,2.73,14.51,14.51,0,0,1-5.73,1A17.71,17.71,0,0,1,302.1,158.82Z" transform="translate(-5.71 -2.19)"/><path class="cls-1" d="M209.16,31.47a2.56,2.56,0,0,0-.44.36,12.63,12.63,0,0,0-.49,2.72,3.68,3.68,0,0,0,.29.49c1.34,1.79-.44,4.63.34,6.89a5.17,5.17,0,0,0-.74.12,7.07,7.07,0,0,0-2.85,1.51,4.21,4.21,0,0,1-.86.93c-3.42,4.7-11.92,1.16-15.24,6.2a1.73,1.73,0,0,1-.62.56,3.62,3.62,0,0,0-.22.32,5.3,5.3,0,0,1-3.39-.24c-3.08-.64-6.36-.25-8.77-2.42-1.61-.6-3.26-1.1-4.78.1-.92.72-2.25,6.2-2.16,6.19-2.35.31-6-2.7-7.39.76a3.33,3.33,0,0,0-.27.61l-.07,0c-.61.13-1.11-.21-1.78.09A3.3,3.3,0,0,0,158.11,59c-2.59,1.1-5.31-.71-7.79,1.47a4.66,4.66,0,0,0-1.76,3.85c.16,3,0,6,.15,9,.12,2.81,0,5.65-1.38,8.16-.07.11-.12.22-.19.34a6.54,6.54,0,0,1-3.38,2.82c-1.1.33-2.42-.22-3.56-.23a44.74,44.74,0,0,0-4.61.48,19.52,19.52,0,0,1-6.89-.59c-2.68-.73-5.26.09-7.81-1a8.48,8.48,0,0,0-2.8-.64,9.76,9.76,0,0,0-2.29.2,53.29,53.29,0,0,0,93.36-51.34Z" transform="translate(-5.71 -2.19)"/><path class="cls-1" d="M165,6.61a55.82,55.82,0,0,1,39.16,16,53.34,53.34,0,0,0-95.28,33c0,1.33.07,2.65.16,4A56.06,56.06,0,0,1,165,6.61Z" transform="translate(-5.71 -2.19)"/><circle class="cls-1" cx="171.4" cy="24.18" r="7.59"/></svg>