<svg width="279" height="175" xmlns="http://www.w3.org/2000/svg">
 <!-- Created with Method Draw - http://github.com/duopixel/Method-Draw/ -->
 <g>
  <title>Layer 1</title>
  <path id="svg_1" d="m92.5,122" opacity="0.5" stroke-width="1.5" stroke="#000" fill="#fff"/>
 </g>
 <g>
  <title>background</title>
  <g display="none" overflow="visible" y="0" x="0" height="100%" width="100%" id="canvasGrid">
   <rect fill="url(#gridpattern)" stroke-width="0" y="0" x="0" height="100%" width="100%"/>
  </g>
  <path id="svg_9" d="m92.414238,84.138199" opacity="0.5" stroke-width="1.5" stroke="#0f0f00" fill="#ff7f00"/>
  <path id="svg_10" d="m160.689957,109.655388" opacity="0.5" stroke-width="1.5" stroke="#0f0f00" fill="#ff7f00"/>
  <path id="svg_11" d="m81.639755,66.953506c3.306335,3.168716 6.594467,7.278114 9.968231,11.920532c0.486603,-0.710541 0.945862,-1.399384 1.432617,-2.124947c4.883026,-7.278366 10.416565,-15.519295 16.61734,-23.493538c0.984222,-1.295521 2.017761,-2.384102 3.020233,-3.605957c-4.653351,-5.545628 -9.78598,-10.869194 -15.977676,-15.44508c-9.574524,-7.167242 -22.083618,-12.150261 -35.988846,-12.046816l-60.259689,0l0,34.977755l60.270645,0c8.380646,0.162868 13.693787,2.916992 20.917175,9.81805zm130.574966,28.624886l0,21.894043c-8.810791,-0.022316 -23.412292,-0.022316 -27.549805,-0.022316c-12.231812,-0.288605 -20.259064,-4.249924 -28.610626,-11.143173c-3.612579,-3.013382 -7.07196,-6.789856 -10.484039,-10.995308c-2.560791,3.650154 -5.141754,7.419044 -7.768219,11.335609c-3.191559,4.739014 -6.479645,9.611053 -9.909943,14.401482c-0.851257,1.177284 -1.806274,2.391357 -2.704895,3.583771c13.903564,14.83033 33.189178,27.617195 59.266296,27.772835l27.76123,0l0,21.894073l33.590302,-19.657837l33.646942,-19.702515l-33.646942,-19.680237l-33.590302,-19.680397zm-56.160431,-27.292328c8.351563,-6.908123 16.378815,-10.854443 28.610626,-11.143322c4.137512,0 18.738983,0 27.549774,-0.014755l0,21.894444l33.590302,-19.665703l33.646942,-19.680424l-33.646942,-19.695492l-33.590302,-19.66535l0,21.871954l-27.7612,0c-31.466736,0.192781 -53.160309,18.732872 -67.284195,37.095055c-14.390228,18.555328 -24.826859,38.124733 -35.529572,48.349754c-7.234314,6.878464 -12.536514,9.662247 -20.917175,9.817863l-60.27063,0l0,34.977463l60.27063,0c13.903488,0.103714 26.412476,-4.87178 35.987,-12.053848c9.671265,-7.130127 16.934601,-16.022682 23.450699,-24.974365c12.815247,-18.029449 23.450592,-36.732239 35.894043,-47.113274z" opacity="0.99" stroke-opacity="null" stroke-width="0" stroke="#000" fill="#ff7f00"/>
 </g>
</svg>