<svg xmlns="http://www.w3.org/2000/svg" viewBox="0 0 94.37 94.37">
  <title>Asset 15</title>
  <g id="Layer_2" data-name="Layer 2">
    <g id="Layer_1-2" data-name="Layer 1">
      <circle cx="47.18" cy="47.18" r="47.18" fill="#754c29"/>
      <path d="M52.35,31.37S49.65,28.6,55,25s.49-5.84.49-5.84,2.88-.61,4.58,4c.93,2.55,1.52,5.88-.65,8s-5.33,3.1-7,.16" fill="#fff"/>
      <path d="M51.48,31.52a3.5,3.5,0,0,0,4.14,2.12l-1.19,1.82s-3.5-.68-4.09-2.87Z" fill="#fff"/>
      <path d="M50.05,34.39a3.4,3.4,0,0,0,3.14,1.76S31.18,73.55,24.85,76c0,0-1.92.62-1.08-2s21.31-36,26.28-39.54" fill="#fff"/>
      <path d="M64.34,19.71a70.57,70.57,0,0,1,7.16,8.07c4,5.46,7.34,12,7.55,18.93.31,9.52-6.52,17.73-14.19,22.33-1.22.72-7.48,3.12-7-.44.27-2,2.86-3.89,4.19-5C72,55,73,44.82,73,44.82S69.92,54.93,64.07,57c-.36.13-2,.87-2.28.23-.17-.47,1.07-1.44,1.33-1.68,2.15-2,4.55-3.62,6.3-6,2.83-3.91,2.4-8.19,1.54-12.7-.74-3.83-1.85-8.72-4.81-11.45,0,0,2.41,3.68,1.14,7.15C66.75,34,66,33.64,65.68,32.3a4.37,4.37,0,0,1-.08-2c.23-.87.91-1.34.68-2.37-.41-1.84-2-3.83-3-5.34a19,19,0,0,0-5.36-5c-3-1.61,3.63-.71,6.44,2.09" fill="#fff"/>
      <path d="M59.48,59.91s-4.26,5.31-8.19,4.83-2.56,4.63,1.23,2.77,7.35-6.14,7-7.6" fill="#fff"/>
      <path d="M52.42,61.34s-4,.84-3.46-2.39,2.7-.33,2.41,0a2,2,0,0,0,1.05,2.35" fill="#fff"/>
    </g>
  </g>
</svg>
