<svg xmlns="http://www.w3.org/2000/svg" xmlns:xlink="http://www.w3.org/1999/xlink" viewBox="0 0 180.37 180.37"><defs><style>.cls-1{fill:#754c29;}.cls-2{clip-path:url(#clip-path);}.cls-3{fill:#fff;}</style><clipPath id="clip-path"><path class="cls-1" d="M42.84,90.18A47.35,47.35,0,1,0,90.18,42.84,47.34,47.34,0,0,0,42.84,90.18"/></clipPath></defs><title>Asset 6</title><g id="Layer_2" data-name="Layer 2"><g id="Layer_1-2" data-name="Layer 1"><path class="cls-1" d="M42.84,90.18A47.35,47.35,0,1,0,90.18,42.84,47.34,47.34,0,0,0,42.84,90.18"/><g class="cls-2"><rect class="cls-1" x="24.84" y="24.84" width="130.69" height="130.69" transform="matrix(0.54, -0.84, 0.84, 0.54, -34.28, 118.01)"/></g><path class="cls-3" d="M95.87,74s-2.69-2.77,2.62-6.36.48-5.84.48-5.84,2.88-.61,4.58,4c.94,2.56,1.52,5.89-.64,8s-5.34,3.09-7,.15"/><path class="cls-3" d="M95,74.18a3.49,3.49,0,0,0,4.14,2.11L98,78.12s-3.5-.69-4.1-2.87Z"/><path class="cls-3" d="M93.58,77a3.39,3.39,0,0,0,3.13,1.76s-22,37.4-28.34,39.81c0,0-1.92.62-1.07-2S88.61,80.56,93.58,77"/><path class="cls-3" d="M107.86,62.37A68.61,68.61,0,0,1,115,70.43c4,5.46,7.34,12,7.56,18.94.3,9.51-6.53,17.72-14.2,22.32-1.21.72-7.48,3.12-7-.43.26-2,2.86-3.89,4.18-5,9.91-8.61,10.94-18.75,10.94-18.75s-3.06,10.12-8.91,12.15c-.36.13-2,.88-2.28.23-.16-.47,1.07-1.43,1.34-1.68,2.15-2,4.54-3.61,6.3-6,2.82-3.9,2.4-8.19,1.53-12.7-.73-3.82-1.85-8.72-4.81-11.45,0,0,2.42,3.68,1.14,7.16-.54,1.48-1.27,1.15-1.61-.19a4.2,4.2,0,0,1-.07-2c.22-.88.9-1.34.67-2.38-.41-1.84-2-3.82-3-5.33a19.07,19.07,0,0,0-5.36-5c-3-1.6,3.63-.71,6.44,2.1"/><path class="cls-3" d="M103,102.57s-4.26,5.31-8.18,4.82S92.26,112,96,110.16s7.36-6.13,7-7.59"/><path class="cls-3" d="M95.94,104s-4,.85-3.46-2.38,2.71-.34,2.42,0a2,2,0,0,0,1,2.35"/></g></g></svg>