<svg xmlns="http://www.w3.org/2000/svg" xmlns:xlink="http://www.w3.org/1999/xlink" viewBox="0 0 176.7 176.7"><defs><style>.cls-1{fill:#ebce56;}.cls-2{clip-path:url(#clip-path);}.cls-3{fill:#fff;}</style><clipPath id="clip-path"><path class="cls-1" d="M41,88.35A47.35,47.35,0,1,0,88.35,41,47.35,47.35,0,0,0,41,88.35"/></clipPath></defs><title>Asset 4</title><g id="Layer_2" data-name="Layer 2"><g id="Layer_1-2" data-name="Layer 1"><path class="cls-1" d="M41,88.35A47.35,47.35,0,1,0,88.35,41,47.35,47.35,0,0,0,41,88.35"/><g class="cls-2"><rect class="cls-1" x="23.67" y="23.67" width="129.35" height="129.35" transform="translate(-32.34 120.69) rotate(-60)"/></g><path class="cls-3" d="M89.58,94.85a.22.22,0,0,1-.22-.18.23.23,0,0,1,.17-.27l2.93-.58a.24.24,0,0,1,.27.18.23.23,0,0,1-.18.26l-2.93.59h0"/><path class="cls-3" d="M90,93a.23.23,0,0,1-.23-.18.24.24,0,0,1,.18-.27L92.92,92a.23.23,0,0,1,.27.18.24.24,0,0,1-.18.27L90.08,93h0"/><path class="cls-3" d="M88.31,99.6a.24.24,0,0,1-.23-.19.23.23,0,0,1,.18-.26l2.93-.59a.23.23,0,0,1,.09.45l-2.93.58h0"/><path class="cls-3" d="M88.57,97.22a.22.22,0,0,1-.22-.18.24.24,0,0,1,.18-.27l2.93-.58a.21.21,0,0,1,.26.18.23.23,0,0,1-.18.27l-2.92.58h-.05"/><path class="cls-3" d="M93.55,116.75a.23.23,0,0,1-.22-.2.22.22,0,0,1,.19-.25l3-.44a.23.23,0,0,1,.07.45l-3,.44h0"/><path class="cls-3" d="M94.6,118.32a.22.22,0,0,1-.22-.19.23.23,0,0,1,.19-.26l3-.43a.23.23,0,1,1,.07.45l-3,.43h0"/><path class="cls-3" d="M90.76,112.7a.22.22,0,0,1-.22-.19.23.23,0,0,1,.19-.26l3-.43a.23.23,0,1,1,.06.45l-2.95.43h0"/><path class="cls-3" d="M88.79,107.18a.23.23,0,0,1-.23-.2.23.23,0,0,1,.2-.25l2.95-.44a.23.23,0,0,1,.25.2.22.22,0,0,1-.19.25l-3,.44h0"/><path class="cls-3" d="M88.29,105a.22.22,0,0,1-.22-.19.23.23,0,0,1,.19-.26l2.95-.43a.23.23,0,0,1,.26.19.23.23,0,0,1-.19.26l-3,.43h0"/><path class="cls-3" d="M91.81,114.85a.22.22,0,0,1-.22-.19.22.22,0,0,1,.19-.26l3-.43a.21.21,0,0,1,.25.19.23.23,0,0,1-.18.26l-3,.42h0"/><path class="cls-3" d="M99.29,92.66a1.84,1.84,0,0,0-.33,0c-1.31.2-2.37,1.6-3,3.93a21.71,21.71,0,0,0-.22,8.7c1,6.42,4.19,11.47,7,11,1.31-.21,2.37-1.61,3-3.93a22,22,0,0,0,.21-8.71c-1-6.16-3.94-11.06-6.62-11.06"/><path class="cls-3" d="M106.3,112.59c-.69,2.58-1.93,4.14-3.5,4.38a2.18,2.18,0,0,1-.44,0c-3.06,0-6.18-4.92-7.23-11.59a22.27,22.27,0,0,1,.23-9c.69-2.59,1.93-4.14,3.5-4.39,3.2-.52,6.56,4.56,7.67,11.55a22.32,22.32,0,0,1-.23,9m1.11-9.77c-1.51-8-5.73-13.88-9.46-13.18L91.22,90.9s-5,3.81-2.81,15.48h0l.67-.14c-.6-3.19-1-7.81.5-11.62a8.65,8.65,0,0,1,1.94-3.1l4.31-.81a12.75,12.75,0,0,0-1.31,2c-2.2,4.21-1.9,9.26-1.26,12.75l0,.1c1.17,6.27,3.78,9.64,5.76,11.35a11.55,11.55,0,0,0,2,1.37l-4.3.81a8.61,8.61,0,0,1-2.93-2.18c-2.79-3-4.09-7.46-4.69-10.66l-.67.12c2.2,11.68,8.24,13.42,8.24,13.42l6.73-1.26c3.72-.7,5.53-7.74,4-15.73"/><path class="cls-3" d="M73.7,93.36a.14.14,0,0,1,0,.18.16.16,0,0,1-.21,0L72.25,92a.15.15,0,1,1,.23-.19l1.2,1.51,0,0"/><path class="cls-3" d="M72.51,93.64a.15.15,0,0,1,0,.18.15.15,0,0,1-.21,0l-1.2-1.5a.16.16,0,0,1,0-.21.15.15,0,0,1,.21,0l1.2,1.5,0,0"/><path class="cls-3" d="M76.8,92.68a.15.15,0,0,1,0,.18.15.15,0,0,1-.21,0l-1.2-1.5a.15.15,0,1,1,.23-.18l1.2,1.51s0,0,0,0"/><path class="cls-3" d="M75.36,93.23a.15.15,0,0,1,0,.18.15.15,0,0,1-.21,0l-1.2-1.5a.15.15,0,1,1,.23-.18l1.2,1.51s0,0,0,0"/><path class="cls-3" d="M85.08,84.59a.15.15,0,0,1,0,.18.16.16,0,0,1-.21,0l-1.12-1.57a.14.14,0,0,1,0-.2.14.14,0,0,1,.2,0l1.13,1.57a0,0,0,0,1,0,0"/><path class="cls-3" d="M85.67,83.52a.14.14,0,0,1,0,.18.15.15,0,0,1-.21,0L84.3,82.1a.15.15,0,0,1,0-.2.14.14,0,0,1,.2,0l1.12,1.57s0,0,0,0"/><path class="cls-3" d="M83.59,87.39a.15.15,0,0,1-.25.15L82.22,86a.13.13,0,0,1,0-.2.14.14,0,0,1,.2,0l1.12,1.57,0,0"/><path class="cls-3" d="M81,90.16a.14.14,0,0,1,0,.18.16.16,0,0,1-.21,0l-1.12-1.57a.15.15,0,0,1,.24-.17L81,90.14v0"/><path class="cls-3" d="M79.88,91.1a.15.15,0,0,1-.25.15l-1.12-1.57a.14.14,0,0,1,0-.2.14.14,0,0,1,.2,0l1.13,1.57a0,0,0,0,0,0,0"/><path class="cls-3" d="M84.51,86.15a.16.16,0,0,1-.05.19.15.15,0,0,1-.2,0l-1.12-1.57a.14.14,0,0,1,0-.2.14.14,0,0,1,.2,0l1.12,1.57s0,0,0,0"/><path class="cls-3" d="M78.11,87a14.32,14.32,0,0,1-5.21,2.52c-1.68.37-2.94.12-3.55-.71C68.11,87.17,70,83.73,73.7,81a14.36,14.36,0,0,1,5.22-2.52c1.68-.37,2.94-.12,3.55.7a1.58,1.58,0,0,1,.15.24c.91,1.76-1,5-4.51,7.59m7.81-5.14L83.2,78.41c-1.51-1.93-6.08-.87-10.22,2.35s-6.26,7.41-4.76,9.34L71,93.59s3.66,1.73,9.71-3h0l-.28-.33a14.16,14.16,0,0,1-6.81,3.15,5.33,5.33,0,0,1-2.35-.2L69.47,91a7.52,7.52,0,0,0,1.54.16,13.08,13.08,0,0,0,7.69-3.06l0,0c3.26-2.54,4.41-5,4.81-6.67a7.85,7.85,0,0,0,.2-1.52l1.74,2.22a5.41,5.41,0,0,1-.38,2.33,14.32,14.32,0,0,1-4.73,5.85l.27.34c6-4.72,5.26-8.7,5.26-8.7"/><path class="cls-3" d="M79,78.9a14.19,14.19,0,0,0-5.06,2.46c-3.24,2.38-5.17,5.54-4.38,7.07a1.18,1.18,0,0,0,.11.19c.51.69,1.63.88,3.15.55a14.19,14.19,0,0,0,5.06-2.46c3.37-2.48,5.33-5.8,4.27-7.26-.51-.69-1.63-.88-3.15-.55"/><path class="cls-3" d="M84,63.58a.17.17,0,0,1-.21,0,.16.16,0,0,1,0-.24l1.72-1.53a.18.18,0,0,1,.25,0,.17.17,0,0,1,0,.24L84,63.56l0,0"/><path class="cls-3" d="M83.54,62.17a.18.18,0,0,1-.22,0,.19.19,0,0,1,0-.25l1.72-1.53a.18.18,0,0,1,.25,0,.18.18,0,0,1,0,.25l-1.72,1.53,0,0"/><path class="cls-3" d="M85,67.24a.19.19,0,0,1-.22,0,.17.17,0,0,1,0-.24l1.73-1.54a.17.17,0,0,1,.24,0,.16.16,0,0,1,0,.24L85,67.21s0,0,0,0"/><path class="cls-3" d="M84.21,65.55a.18.18,0,0,1-.22,0,.17.17,0,0,1,0-.25l1.72-1.53a.16.16,0,0,1,.24,0A.18.18,0,0,1,86,64l-1.72,1.53,0,0"/><path class="cls-3" d="M95.15,76.62a.17.17,0,0,1-.23,0,.19.19,0,0,1,0-.25l1.8-1.43a.16.16,0,0,1,.24,0,.17.17,0,0,1,0,.25l-1.8,1.44h0"/><path class="cls-3" d="M96.46,77.27a.18.18,0,0,1-.22,0,.18.18,0,0,1,0-.25l1.79-1.44a.18.18,0,0,1,.25,0,.17.17,0,0,1,0,.24l-1.8,1.44,0,0"/><path class="cls-3" d="M91.71,75a.18.18,0,0,1-.22,0,.17.17,0,0,1,0-.25l1.8-1.44a.18.18,0,0,1,.25,0,.17.17,0,0,1,0,.24L91.73,75l0,0"/><path class="cls-3" d="M88.24,72.1a.17.17,0,0,1-.23,0,.18.18,0,0,1,0-.25l1.8-1.43a.17.17,0,0,1,.24,0,.17.17,0,0,1,0,.25l-1.8,1.44h0"/><path class="cls-3" d="M87,70.82a.17.17,0,0,1-.22,0,.16.16,0,0,1,0-.24l1.8-1.45a.17.17,0,0,1,.24,0,.18.18,0,0,1,0,.25l-1.79,1.44h0"/><path class="cls-3" d="M93.24,76A.19.19,0,0,1,93,76a.18.18,0,0,1,0-.25l1.8-1.44a.17.17,0,0,1,.24,0,.17.17,0,0,1,0,.24L93.27,76l0,0"/><path class="cls-3" d="M98.3,63.12c-3-3.73-6.94-5.84-8.72-4.79a1.1,1.1,0,0,0-.21.14c-.8.65-1,2-.47,3.79a16.68,16.68,0,0,0,3.26,5.89c3.18,3.88,7.26,6,8.93,4.64.8-.64,1-2,.47-3.78a16.84,16.84,0,0,0-3.26-5.89"/><path class="cls-3" d="M101.4,73.17a2.83,2.83,0,0,1-.28.2c-2,1.19-6-.88-9.34-4.91a17.35,17.35,0,0,1-3.35-6.07c-.54-2-.32-3.51.63-4.29,1.93-1.59,6.15.48,9.62,4.71A17.39,17.39,0,0,1,102,68.88c.55,2,.33,3.51-.62,4.29M99,61.94c-4.11-4.74-9.24-7-11.45-5.11l-4,3.47s-1.84,4.49,4.17,11.41h0l.39-.35c-1.65-1.9-3.72-4.81-4.2-7.94A6.7,6.7,0,0,1,84,60.6l2.56-2.22a9.57,9.57,0,0,0-.09,1.85c.17,3.67,2.35,6.92,4.14,9l0,.06c3.23,3.73,6.29,5,8.27,5.32a9.94,9.94,0,0,0,1.84.16L98.17,77a6.55,6.55,0,0,1-2.81-.31c-3-.92-5.64-3.38-7.29-5.28l-.39.34c6,6.93,10.73,5.74,10.73,5.74l4-3.48c2.21-1.91.66-7.31-3.45-12"/></g></g></svg>