<svg xmlns="http://www.w3.org/2000/svg" viewBox="0 0 94.37 94.37">
  <title>Asset 14</title>
  <g id="Layer_2" data-name="Layer 2">
    <g id="Layer_1-2" data-name="Layer 1">
      <circle cx="47.18" cy="47.18" r="47.18" fill="#aa2a29"/>
      <path d="M47,39.9A24.08,24.08,0,0,1,67,50.47c0-.14,0-.27,0-.4a20,20,0,1,0-39.92,0c0,.13,0,.26,0,.4A24.09,24.09,0,0,1,47,39.9" fill="#fff"/>
      <path d="M47,26.89a12.31,12.31,0,0,1,10.18,5.39v-.21a10.18,10.18,0,0,0-20.36,0c0,.07,0,.14,0,.21A12.28,12.28,0,0,1,47,26.89" fill="#fff"/>
      <path d="M47,19.35a5.31,5.31,0,0,1,4.41,2.34s0-.06,0-.09a4.42,4.42,0,1,0-8.83,0v.09A5.33,5.33,0,0,1,47,19.35" fill="#fff"/>
      <path d="M47.18,67.3c10.84,0,20.4,2,26.06,5.08,0-.07,0-.13,0-.19,0-5.31-11.67-9.6-26.07-9.6s-26.07,4.29-26.07,9.6a1.37,1.37,0,0,0,0,.19c5.66-3.07,15.22-5.08,26.05-5.08" fill="#fff"/>
      <path d="M34.45,61.5V46.63a24.76,24.76,0,0,0-4.77,4.08V63.25a36.74,36.74,0,0,1,4.77-1.75" fill="#fff"/>
      <path d="M44.43,60.07V43.16a23.47,23.47,0,0,0-4.77,1.09V60.57c1.54-.24,3.14-.41,4.77-.5" fill="#fff"/>
      <path d="M54.41,60.57V44.16a22.47,22.47,0,0,0-4.78-1V60.07c1.64.09,3.23.26,4.78.5" fill="#fff"/>
      <path d="M64.38,63.25V50.38a24.24,24.24,0,0,0-4.77-3.92v15a36.74,36.74,0,0,1,4.77,1.75" fill="#fff"/>
    </g>
  </g>
</svg>
