<svg xmlns="http://www.w3.org/2000/svg" xmlns:xlink="http://www.w3.org/1999/xlink" viewBox="0 0 173.88 173.88"><defs><style>.cls-1{fill:#aa2a29;}.cls-2{clip-path:url(#clip-path);}.cls-3{fill:#fff;}</style><clipPath id="clip-path"><path class="cls-1" d="M40.35,86.94A46.59,46.59,0,1,0,86.94,40.35,46.59,46.59,0,0,0,40.35,86.94"/></clipPath></defs><title>Asset 5</title><g id="Layer_2" data-name="Layer 2"><g id="Layer_1-2" data-name="Layer 1"><path class="cls-1" d="M40.35,86.94A46.59,46.59,0,1,0,86.94,40.35,46.59,46.59,0,0,0,40.35,86.94"/><g class="cls-2"><rect class="cls-1" x="23.3" y="23.3" width="127.29" height="127.29" transform="translate(-31.82 118.77) rotate(-60)"/></g><path class="cls-3" d="M86.53,79.24a24.08,24.08,0,0,1,20,10.57c0-.14,0-.27,0-.41a20,20,0,0,0-39.92,0c0,.14,0,.27,0,.41a24.09,24.09,0,0,1,20-10.57"/><path class="cls-3" d="M86.53,66.22a12.3,12.3,0,0,1,10.18,5.4v-.21a10.18,10.18,0,1,0-20.36,0c0,.07,0,.14,0,.21a12.26,12.26,0,0,1,10.17-5.4"/><path class="cls-3" d="M86.53,58.68A5.31,5.31,0,0,1,90.94,61s0-.06,0-.09a4.42,4.42,0,0,0-8.83,0V61a5.33,5.33,0,0,1,4.41-2.34"/><path class="cls-3" d="M86.68,106.63c10.84,0,20.4,2,26.06,5.09,0-.07,0-.14,0-.2,0-5.3-11.67-9.6-26.07-9.6s-26.07,4.3-26.07,9.6a1.5,1.5,0,0,0,0,.2c5.66-3.07,15.22-5.09,26.05-5.09"/><path class="cls-3" d="M74,100.84V86A24.41,24.41,0,0,0,69.18,90v12.55A36.74,36.74,0,0,1,74,100.84"/><path class="cls-3" d="M83.93,99.41V82.5a22.82,22.82,0,0,0-4.77,1.09V99.91a45.53,45.53,0,0,1,4.77-.5"/><path class="cls-3" d="M93.91,99.91V83.49a23.77,23.77,0,0,0-4.78-1V99.41a45.72,45.72,0,0,1,4.78.5"/><path class="cls-3" d="M103.88,102.59V89.72a24.59,24.59,0,0,0-4.77-3.93v15a36.74,36.74,0,0,1,4.77,1.75"/></g></g></svg>