<svg xmlns="http://www.w3.org/2000/svg" xmlns:xlink="http://www.w3.org/1999/xlink" viewBox="0 0 173.89 173.89"><defs><style>.cls-1{fill:#7f3f98;}.cls-2{clip-path:url(#clip-path);}.cls-3{fill:#fff;}</style><clipPath id="clip-path"><path class="cls-1" d="M40.35,87a46.6,46.6,0,1,0,46.59-46.6A46.6,46.6,0,0,0,40.35,87"/></clipPath></defs><title>Asset 7</title><g id="Layer_2" data-name="Layer 2"><g id="Layer_1-2" data-name="Layer 1"><path class="cls-1" d="M40.35,87a46.6,46.6,0,1,0,46.59-46.6A46.6,46.6,0,0,0,40.35,87"/><g class="cls-2"><rect class="cls-1" x="23.3" y="23.3" width="127.3" height="127.29" transform="translate(-31.82 118.77) rotate(-60)"/></g><path class="cls-3" d="M87.54,99.09A31.6,31.6,0,0,1,113.73,113c0-.18,0-.35,0-.53a26.2,26.2,0,1,0-52.39,0c0,.18,0,.35,0,.53A31.6,31.6,0,0,1,87.54,99.09"/><path class="cls-3" d="M87.54,86.83a.6.6,0,0,1-.6-.6V68.86a.6.6,0,0,1,.6-.6.61.61,0,0,1,.61.6V86.23a.61.61,0,0,1-.61.6"/><path class="cls-3" d="M87.35,69.18s4.46,1.73,6,0,5.52-.81,5.77,0v6.26s-4-1.36-5,0c0,0-4.4,2.26-6.76.48Z"/></g></g></svg>