<svg xmlns="http://www.w3.org/2000/svg" xmlns:xlink="http://www.w3.org/1999/xlink" viewBox="0 0 175.74 175.74"><defs><style>.cls-1{fill:#005dac;}.cls-2{clip-path:url(#clip-path);}.cls-3{fill:#fff;}</style><clipPath id="clip-path"><path class="cls-1" d="M40.78,87.87A47.09,47.09,0,1,0,87.87,40.78,47.09,47.09,0,0,0,40.78,87.87"/></clipPath></defs><title>Asset 8</title><g id="Layer_2" data-name="Layer 2"><g id="Layer_1-2" data-name="Layer 1"><path class="cls-1" d="M40.78,87.87A47.09,47.09,0,1,0,87.87,40.78,47.09,47.09,0,0,0,40.78,87.87"/><g class="cls-2"><rect class="cls-1" x="23.55" y="23.54" width="128.65" height="128.65" transform="translate(-32.16 120.03) rotate(-60)"/></g><path class="cls-3" d="M80.69,118.9c-3.86-1.28-10.22-4-9.53-6.13s7.44-.53,11.31.75,10.23,4,9.53,6.13-7.44.52-11.31-.75M94.36,74.4l2.59.86a2.72,2.72,0,1,1-1.71,5.17l-2.59-.86a2.72,2.72,0,0,1,1.71-5.17M94.63,95l5.26-16a4.36,4.36,0,0,0-2.77-5.5L95.48,73A4.37,4.37,0,0,0,90,75.8l-5.27,16C83,93,81.28,94.29,79.54,95.64l3.16,1-.34,1-3.84-1.27c-1,.84-2.07,1.69-3.06,2.54l5.84,1.93L81,102,74.5,99.82c-1,.86-1.88,1.72-2.72,2.56l8.15,2.69-.34,1-8.65-2.86A26.92,26.92,0,0,0,68.66,106l9.9,3.27-.34,1L68,106.9a8.59,8.59,0,0,0-.86,1.76c-1.78,5.42,6.6,10.12,13.4,12.3s16.3,3.51,18.09-1.9c1.51-4.57-1.33-15.49-4-24"/><path class="cls-3" d="M106.88,65.53a4.21,4.21,0,1,1-2.68-5.31,4.21,4.21,0,0,1,2.68,5.31"/><path class="cls-3" d="M97,69.08a2,2,0,1,1-1.26-2.49A2,2,0,0,1,97,69.08"/><path class="cls-3" d="M97.79,59.36A1.91,1.91,0,1,1,96.58,57a1.9,1.9,0,0,1,1.21,2.41"/></g></g></svg>