<svg xmlns="http://www.w3.org/2000/svg" xmlns:xlink="http://www.w3.org/1999/xlink" viewBox="0 0 180.4 180.4"><defs><style>.cls-1{fill:#fff;}.cls-2{clip-path:url(#clip-path);}.cls-3{fill:#2d8f44;}</style><clipPath id="clip-path"><path class="cls-1" d="M41.86,90.2A48.34,48.34,0,1,0,90.2,41.86,48.34,48.34,0,0,0,41.86,90.2"/></clipPath></defs><title>Asset 3</title><g id="Layer_2" data-name="Layer 2"><g id="Layer_1-2" data-name="Layer 1"><path class="cls-1" d="M41.86,90.2A48.34,48.34,0,1,0,90.2,41.86,48.34,48.34,0,0,0,41.86,90.2"/><g class="cls-2"><rect class="cls-1" x="24.17" y="24.17" width="132.07" height="132.07" transform="translate(-33.02 123.22) rotate(-60)"/></g><path class="cls-3" d="M68.83,81l.1,0c0,.16,0,.36,0,.61,0-.24-.09-.45-.12-.64m46.29,0c-12.18,2.86-19.31,9.85-23.49,17.13C86.36,87,86.72,75.94,92.71,65.27h.06c1.4,6.42.16,24.92.16,24.92a15.59,15.59,0,0,0,4.9-8.26c2.72-9.59-4.66-18-4.76-18.12l-.54-.61-.42.71C86.3,73.81,85.19,84,88.79,94.34c-4.45-7.62-11.33-12.55-20.53-14.71l-.79-.19.06.82c0,.14,1.3,14.74,14.83,15.83a.61.61,0,0,0,.64-.55.59.59,0,0,0-.55-.64h0c-.09-.08-11-9.83-13.2-13.79,10.26,2.76,17.38,9.28,21.18,19.39a43.38,43.38,0,0,0-2.64,6.83,60.84,60.84,0,0,0-1.64,6.78c-.3,1.79-1.28,5,.28,6.38s3.81,1.64,5.7,1.64a2.78,2.78,0,0,1,.51,0,.82.82,0,0,0-.11-.6c-1.51-2.37-3.86-8.5-.69-21.27C96.46,91,104.08,85,114.55,82.35c0,.15,0,.32-.08.5-3.21,4.58-13,13.25-15.46,15.46a.58.58,0,0,0-.53.46l-.07.06h.06s0,.08,0,.12a.61.61,0,0,0,.65.55c15.27-1.23,16.73-17.72,16.74-17.89l.07-.82Z"/></g></g></svg>