<svg xmlns="http://www.w3.org/2000/svg" viewBox="0 0 94.37 94.37">
  <title>Asset 12</title>
  <g id="Layer_2" data-name="Layer 2">
    <g id="Layer_1-2" data-name="Layer 1">
      <circle cx="47.18" cy="47.18" r="47.18" fill="#f1f2f2"/>
      <path d="M24.32,33.75l.1,0c0,.16,0,.37,0,.61,0-.24-.09-.45-.12-.64m46.29,0C58.43,36.59,51.3,43.58,47.13,50.87,41.85,39.73,42.21,28.69,48.2,18h.06c1.4,6.42.16,24.92.16,24.92a15.54,15.54,0,0,0,4.9-8.25c2.72-9.6-4.66-18-4.76-18.13L48,16l-.42.7c-5.81,9.89-6.92,20.1-3.32,30.42C39.83,39.47,33,34.54,23.75,32.38L23,32.19,23,33c0,.14,1.3,14.75,14.83,15.83a.61.61,0,0,0,.64-.55.59.59,0,0,0-.54-.64h-.06c-.09-.08-11-9.83-13.19-13.79C35,36.61,42.07,43.13,45.87,53.24a44.38,44.38,0,0,0-2.64,6.83,58.66,58.66,0,0,0-1.63,6.78c-.31,1.8-1.28,5,.27,6.38s3.81,1.64,5.71,1.64a2.74,2.74,0,0,1,.5,0,.78.78,0,0,0-.11-.59c-1.5-2.38-3.86-8.51-.69-21.28C52,43.79,59.57,37.77,70,35.1c0,.15-.05.32-.08.5C66.75,40.18,57,48.85,54.5,51.06a.58.58,0,0,0-.53.46l-.07.06H54a.5.5,0,0,0,0,.12.61.61,0,0,0,.65.55C69.88,51,71.33,34.53,71.35,34.36l.06-.81Z" fill="#2d8f44"/>
    </g>
  </g>
</svg>
