<svg xmlns="http://www.w3.org/2000/svg" viewBox="0 0 94.37 94.37">
  <title>Asset 13</title>
  <g id="Layer_2" data-name="Layer 2">
    <g id="Layer_1-2" data-name="Layer 1">
      <circle cx="47.18" cy="47.18" r="47.18" fill="#ebce56"/>
      <path d="M46,54.05a.22.22,0,0,1-.22-.18A.23.23,0,0,1,46,53.6L48.89,53a.23.23,0,0,1,.09.45l-2.93.58h0" fill="#fff"/>
      <path d="M46.47,52.22a.22.22,0,0,1-.22-.19.21.21,0,0,1,.17-.26l2.93-.59a.23.23,0,0,1,.09.45l-2.93.58h0" fill="#fff"/>
      <path d="M44.74,58.8a.23.23,0,0,1-.05-.45l2.93-.58a.23.23,0,0,1,.27.17.24.24,0,0,1-.18.27l-2.93.58h0" fill="#fff"/>
      <path d="M45,56.43a.24.24,0,0,1-.23-.19A.23.23,0,0,1,45,56l2.93-.59a.23.23,0,0,1,.09.45l-2.93.58h0" fill="#fff"/>
      <path d="M50,76a.22.22,0,0,1-.22-.19A.23.23,0,0,1,50,75.5l2.95-.43a.22.22,0,0,1,.26.19.24.24,0,0,1-.19.26L50,76h0" fill="#fff"/>
      <path d="M51,77.52a.22.22,0,0,1-.22-.19.22.22,0,0,1,.19-.25l3-.44a.24.24,0,0,1,.26.19.22.22,0,0,1-.19.26l-3,.43h0" fill="#fff"/>
      <path d="M47.19,71.9a.22.22,0,0,1-.22-.19.23.23,0,0,1,.19-.26l3-.43a.24.24,0,0,1,.26.19.23.23,0,0,1-.19.26l-3,.43h0" fill="#fff"/>
      <path d="M45.22,66.38a.22.22,0,0,1-.22-.19.22.22,0,0,1,.19-.26l3-.43a.21.21,0,0,1,.25.19.23.23,0,0,1-.19.26l-3,.43h0" fill="#fff"/>
      <path d="M44.72,64.17a.23.23,0,0,1-.22-.2.22.22,0,0,1,.19-.25l3-.44a.22.22,0,0,1,.25.2.22.22,0,0,1-.19.25l-3,.43h0" fill="#fff"/>
      <path d="M48.24,74.05a.22.22,0,0,1-.22-.19.23.23,0,0,1,.19-.26l2.95-.43a.23.23,0,0,1,.26.19.24.24,0,0,1-.19.26l-3,.43h0" fill="#fff"/>
      <path d="M55.73,51.86a1.87,1.87,0,0,0-.34,0c-1.31.2-2.37,1.6-3,3.93a21.59,21.59,0,0,0-.21,8.71c1,6.41,4.18,11.47,6.94,11,1.31-.21,2.37-1.6,3-3.93a22,22,0,0,0,.21-8.71c-1-6.15-3.94-11.06-6.61-11.06" fill="#fff"/>
      <path d="M62.73,71.79c-.69,2.58-1.93,4.14-3.5,4.39a3.15,3.15,0,0,1-.44,0c-3.06,0-6.17-4.92-7.23-11.58a22.32,22.32,0,0,1,.23-9c.69-2.58,1.93-4.14,3.5-4.39,3.2-.51,6.57,4.57,7.67,11.55a22.32,22.32,0,0,1-.23,9M63.84,62c-1.5-8-5.73-13.89-9.46-13.19L47.65,50.1s-5,3.81-2.81,15.48h0l.67-.14c-.6-3.19-1-7.81.5-11.62A8.65,8.65,0,0,1,48,50.73l4.31-.81a12.75,12.75,0,0,0-1.31,2c-2.2,4.21-1.9,9.26-1.25,12.75l0,.1c1.17,6.28,3.78,9.64,5.76,11.35a11.55,11.55,0,0,0,2,1.37l-4.3.81a8.61,8.61,0,0,1-2.93-2.18c-2.78-3-4.09-7.46-4.69-10.66l-.67.12C47,77.27,53.08,79,53.08,79l6.74-1.26c3.71-.7,5.52-7.74,4-15.72" fill="#fff"/>
      <path d="M30.13,52.56a.14.14,0,0,1,0,.18.16.16,0,0,1-.21,0l-1.2-1.51a.15.15,0,1,1,.23-.18l1.2,1.51s0,0,0,0" fill="#fff"/>
      <path d="M28.94,52.84a.14.14,0,0,1,0,.18.16.16,0,0,1-.21,0l-1.2-1.51a.14.14,0,0,1,0-.2.15.15,0,0,1,.21,0l1.2,1.51,0,0" fill="#fff"/>
      <path d="M33.23,51.88a.14.14,0,0,1,0,.18A.16.16,0,0,1,33,52l-1.2-1.51a.14.14,0,0,1,0-.2.15.15,0,0,1,.21,0l1.2,1.51s0,0,0,0" fill="#fff"/>
      <path d="M31.79,52.43a.15.15,0,0,1,0,.18.16.16,0,0,1-.21,0l-1.2-1.51a.14.14,0,0,1,0-.2.15.15,0,0,1,.21,0l1.2,1.51s0,0,0,0" fill="#fff"/>
      <path d="M41.51,43.79a.17.17,0,0,1,0,.19.16.16,0,0,1-.21,0l-1.12-1.57a.14.14,0,0,1,0-.2.14.14,0,0,1,.2,0l1.12,1.57v0" fill="#fff"/>
      <path d="M42.1,42.72a.14.14,0,0,1,0,.19.16.16,0,0,1-.21,0L40.73,41.3a.15.15,0,0,1,0-.2.14.14,0,0,1,.2,0l1.12,1.57v0" fill="#fff"/>
      <path d="M40,46.59a.16.16,0,0,1-.05.19.15.15,0,0,1-.2,0l-1.12-1.57a.14.14,0,0,1,.23-.17L40,46.57l0,0" fill="#fff"/>
      <path d="M37.43,49.36a.15.15,0,0,1-.25.15l-1.12-1.57a.15.15,0,0,1,0-.2.14.14,0,0,1,.2,0l1.12,1.57v0" fill="#fff"/>
      <path d="M36.31,50.3a.15.15,0,0,1,0,.18.15.15,0,0,1-.21,0l-1.12-1.57a.14.14,0,0,1,0-.2.14.14,0,0,1,.2,0l1.13,1.57v0" fill="#fff"/>
      <path d="M40.94,45.35a.16.16,0,0,1,0,.19.15.15,0,0,1-.2,0l-1.12-1.57a.14.14,0,1,1,.23-.16l1.12,1.56,0,0" fill="#fff"/>
      <path d="M34.55,46.24a14.4,14.4,0,0,1-5.21,2.52c-1.69.37-2.95.12-3.56-.7-1.24-1.69.67-5.12,4.35-7.83a14.36,14.36,0,0,1,5.22-2.52c1.68-.37,2.94-.12,3.55.71a1,1,0,0,1,.15.24c.91,1.76-1,5-4.5,7.58m7.8-5.13-2.72-3.49c-1.5-1.93-6.08-.88-10.21,2.35s-6.27,7.4-4.77,9.33l2.73,3.49s3.67,1.74,9.71-3h0l-.27-.34A14.2,14.2,0,0,1,30,52.62a5.33,5.33,0,0,1-2.35-.2L25.9,50.19a7.52,7.52,0,0,0,1.54.16c3.08,0,5.88-1.65,7.69-3.05l0,0c3.26-2.53,4.41-5,4.81-6.67a8.71,8.71,0,0,0,.21-1.52l1.73,2.22a5.41,5.41,0,0,1-.38,2.33,14.25,14.25,0,0,1-4.73,5.85l.27.35c6-4.72,5.26-8.7,5.26-8.7" fill="#fff"/>
      <path d="M35.43,38.1a14.07,14.07,0,0,0-5.05,2.46C27.13,42.94,25.2,46.1,26,47.64a1.74,1.74,0,0,0,.11.18c.51.69,1.63.88,3.15.55a14.19,14.19,0,0,0,5.06-2.46c3.38-2.48,5.34-5.8,4.27-7.26-.51-.69-1.63-.88-3.15-.55" fill="#fff"/>
      <path d="M40.38,22.78a.16.16,0,0,1-.21,0,.16.16,0,0,1,0-.24L41.9,21a.17.17,0,1,1,.23.26l-1.72,1.53,0,0" fill="#fff"/>
      <path d="M40,21.38a.17.17,0,0,1-.21,0,.18.18,0,0,1,0-.25l1.72-1.53a.19.19,0,0,1,.25,0,.16.16,0,0,1,0,.24L40,21.35l0,0" fill="#fff"/>
      <path d="M41.39,26.44a.18.18,0,0,1-.21-.28l1.73-1.53a.16.16,0,0,1,.24,0,.18.18,0,0,1,0,.25l-1.72,1.53,0,0" fill="#fff"/>
      <path d="M40.64,24.75a.18.18,0,0,1-.22,0,.19.19,0,0,1,0-.25l1.72-1.53a.18.18,0,0,1,.25,0,.18.18,0,0,1,0,.25l-1.72,1.53,0,0" fill="#fff"/>
      <path d="M51.58,35.83a.18.18,0,0,1-.22,0,.17.17,0,0,1,0-.25l1.8-1.44a.18.18,0,0,1,.25,0,.17.17,0,0,1,0,.24l-1.8,1.44,0,0" fill="#fff"/>
      <path d="M52.89,36.47a.17.17,0,0,1-.22,0,.18.18,0,0,1,0-.25l1.8-1.44a.17.17,0,0,1,.21.27l-1.79,1.45h0" fill="#fff"/>
      <path d="M48.14,34.22a.17.17,0,0,1-.22,0,.18.18,0,0,1,0-.25l1.8-1.44a.18.18,0,0,1,.25,0,.16.16,0,0,1,0,.24l-1.8,1.45h0" fill="#fff"/>
      <path d="M44.67,31.31a.2.2,0,0,1-.23,0,.19.19,0,0,1,0-.25l1.8-1.44a.17.17,0,0,1,.24,0,.17.17,0,0,1,0,.25l-1.8,1.44,0,0" fill="#fff"/>
      <path d="M43.47,30a.16.16,0,0,1-.22,0,.17.17,0,0,1,0-.24l1.8-1.45a.17.17,0,0,1,.24,0,.18.18,0,0,1,0,.25L43.5,30h0" fill="#fff"/>
      <path d="M49.68,35.24a.17.17,0,0,1-.23,0,.18.18,0,0,1,0-.25l1.8-1.44a.16.16,0,0,1,.24,0,.16.16,0,0,1,0,.24l-1.8,1.45h0" fill="#fff"/>
      <path d="M54.73,22.32c-3-3.73-6.94-5.83-8.72-4.79l-.21.14c-.8.65-1,2-.47,3.79a16.84,16.84,0,0,0,3.26,5.89c3.18,3.88,7.27,6,8.94,4.64.79-.64.95-2,.46-3.78a16.77,16.77,0,0,0-3.26-5.89" fill="#fff"/>
      <path d="M57.83,32.37a2,2,0,0,1-.28.2c-2,1.19-6-.88-9.34-4.91a17.26,17.26,0,0,1-3.35-6.07c-.54-2-.32-3.51.63-4.29,1.93-1.59,6.16.49,9.62,4.71a17.22,17.22,0,0,1,3.34,6.07c.55,2,.33,3.51-.62,4.29M55.38,21.14c-4.11-4.74-9.24-7-11.45-5.11l-4,3.47S38.09,24,44.1,30.92h0l.39-.36c-1.65-1.89-3.71-4.81-4.2-7.94a6.39,6.39,0,0,1,.09-2.82L43,17.59a9.39,9.39,0,0,0-.1,1.84c.18,3.68,2.35,6.92,4.14,9l0,.07c3.23,3.72,6.29,4.94,8.27,5.31a9.15,9.15,0,0,0,1.84.16L54.6,36.17a6.55,6.55,0,0,1-2.81-.31c-3-.92-5.63-3.38-7.29-5.28l-.39.35c6,6.92,10.73,5.73,10.73,5.73l4-3.47c2.21-1.92.67-7.31-3.45-12" fill="#fff"/>
    </g>
  </g>
</svg>
