<svg xmlns="http://www.w3.org/2000/svg" viewBox="0 0 94.37 94.37">
  <title>Asset 16</title>
  <g id="Layer_2" data-name="Layer 2">
    <g id="Layer_1-2" data-name="Layer 1">
      <circle cx="47.18" cy="47.18" r="47.18" fill="#7f3f98"/>
      <path d="M47.18,55.69A31.64,31.64,0,0,1,73.37,69.57c0-.18,0-.35,0-.53A26.2,26.2,0,0,0,21,69c0,.18,0,.35,0,.53A31.61,31.61,0,0,1,47.18,55.69" fill="#fff"/>
      <path d="M47.18,43.44a.6.6,0,0,1-.6-.6V25.47a.6.6,0,0,1,.6-.6.6.6,0,0,1,.61.6V42.84a.61.61,0,0,1-.61.6" fill="#fff"/>
      <path d="M47,25.78s4.46,1.74,6,0,5.52-.8,5.77,0v6.27s-4-1.37-5,0c0,0-4.4,2.26-6.76.48Z" fill="#fff"/>
    </g>
  </g>
</svg>
