<svg xmlns="http://www.w3.org/2000/svg" viewBox="0 0 94.37 94.37">
  <title>Asset 17</title>
  <g id="Layer_2" data-name="Layer 2">
    <g id="Layer_1-2" data-name="Layer 1">
      <circle cx="47.18" cy="47.18" r="47.18" fill="#005dac"/>
      <path d="M40.27,74.78c-3.87-1.27-10.23-4-9.53-6.12s7.43-.53,11.3.74,10.23,4,9.53,6.13-7.44.53-11.3-.75M53.93,30.29l2.59.85a2.72,2.72,0,1,1-1.71,5.17l-2.58-.85a2.72,2.72,0,1,1,1.7-5.17m.27,20.63,5.27-16a4.37,4.37,0,0,0-2.78-5.5l-1.64-.54a4.37,4.37,0,0,0-5.5,2.77l-5.27,16c-1.68,1.22-3.43,2.53-5.16,3.88l3.15,1-.34,1-3.84-1.27C37.05,53.17,36,54,35,54.87l5.85,1.93-.34,1L34.08,55.7c-1,.87-1.89,1.72-2.73,2.56L39.5,61l-.33,1-8.66-2.85a25.81,25.81,0,0,0-2.28,2.7l9.9,3.27-.34,1L27.6,62.78a8.93,8.93,0,0,0-.86,1.77C25,70,33.34,74.66,40.15,76.84s16.3,3.51,18.08-1.9c1.51-4.57-1.33-15.49-4-24" fill="#fff"/>
      <path d="M66.45,21.42a4.21,4.21,0,1,1-2.68-5.32,4.21,4.21,0,0,1,2.68,5.32" fill="#fff"/>
      <path d="M56.52,25a2,2,0,1,1-1.26-2.49A2,2,0,0,1,56.52,25" fill="#fff"/>
      <path d="M57.37,15.25a1.92,1.92,0,1,1-1.22-2.42,1.91,1.91,0,0,1,1.22,2.42" fill="#fff"/>
    </g>
  </g>
</svg>
